HIERARCHY
ROOT RootJoint
{
    OFFSET   0.000000   0.000000   0.000000
    CHANNELS 6 Xposition Yposition Zposition Xrotation Yrotation Zrotation
    JOINT pelvis_lowerback
    {
        OFFSET   0.000000   0.093605   0.000000
        CHANNELS 3 Xrotation Yrotation Zrotation
        JOINT lowerback_torso
        {
            OFFSET   0.000000   0.100000   0.000000
            CHANNELS 3 Xrotation Yrotation Zrotation
            JOINT torso_head
            {
                OFFSET   0.000000   0.282350   0.000000
                CHANNELS 3 Xrotation Yrotation Zrotation
                End Site
                {
                    OFFSET   0.000000   0.192650   0.000000
                }
            }
            JOINT rTorso_Clavicle
            {
                OFFSET  -0.001000   0.157500   0.000000
                CHANNELS 3 Xrotation Yrotation Zrotation
                JOINT rShoulder
                {
                    OFFSET  -0.117647   0.000000   0.000000
                    CHANNELS 3 Xrotation Yrotation Zrotation
                    JOINT rElbow
                    {
                        OFFSET  -0.245000   0.000000   0.000000
                        CHANNELS 3 Xrotation Yrotation Zrotation
                        JOINT rWrist
                        {
                            OFFSET  -0.240000   0.000000   0.000000
                            CHANNELS 3 Xrotation Yrotation Zrotation
                            End Site
                            {
                                OFFSET  -0.116353  -0.002500   0.000000
                            }
                        }
                    }
                }
            }
            JOINT lTorso_Clavicle
            {
                OFFSET   0.001000   0.157500   0.000000
                CHANNELS 3 Xrotation Yrotation Zrotation
                JOINT lShoulder
                {
                    OFFSET   0.117647   0.000000   0.000000
                    CHANNELS 3 Xrotation Yrotation Zrotation
                    JOINT lElbow
                    {
                        OFFSET   0.245000   0.000000   0.000000
                        CHANNELS 3 Xrotation Yrotation Zrotation
                        JOINT lWrist
                        {
                            OFFSET   0.240000   0.000000   0.000000
                            CHANNELS 3 Xrotation Yrotation Zrotation
                            End Site
                            {
                                OFFSET   0.116353  -0.002500   0.000000
                            }
                        }
                    }
                }
            }
        }
    }
    JOINT rHip
    {
        OFFSET  -0.100000  -0.051395   0.000000
        CHANNELS 3 Xrotation Yrotation Zrotation
        JOINT rKnee
        {
            OFFSET   0.000000  -0.410000   0.000000
            CHANNELS 3 Xrotation Yrotation Zrotation
            JOINT rAnkle
            {
                OFFSET   0.000000  -0.390000   0.000000
                CHANNELS 3 Xrotation Yrotation Zrotation
                JOINT rToeJoint
                {
                    OFFSET   0.000000  -0.050000   0.130000
                    CHANNELS 3 Xrotation Yrotation Zrotation
                    End Site
                    {
                        OFFSET  -0.010000   0.002000   0.060000
                    }
                }
            }
        }
    }
    JOINT lHip
    {
        OFFSET   0.100000  -0.051395   0.000000
        CHANNELS 3 Xrotation Yrotation Zrotation
        JOINT lKnee
        {
            OFFSET   0.000000  -0.410000   0.000000
            CHANNELS 3 Xrotation Yrotation Zrotation
            JOINT lAnkle
            {
                OFFSET   0.000000  -0.390000   0.000000
                CHANNELS 3 Xrotation Yrotation Zrotation
                JOINT lToeJoint
                {
                    OFFSET   0.000000  -0.050000   0.130000
                    CHANNELS 3 Xrotation Yrotation Zrotation
                    End Site
                    {
                        OFFSET   0.010000   0.002000   0.060000
                    }
                }
            }
        }
    }
}
MOTION
Frames: 17
Frame Time:   0.008333
 -2.350213   0.874528   4.261852  11.278690   2.917567   8.948025  -2.214196  13.807246  -4.103415   1.218530   8.483187  -2.226563  -9.232164  -6.484663   0.280140   1.164901   4.471227   0.566938   3.987593  21.348445  49.325495  -0.023861  76.504342   0.018209   1.783402   4.944660  -3.876360   3.857382  16.795751  -2.896771   8.498504  16.361689 -41.936119   0.008704 -41.837358  -0.031121  -1.775105  -2.418690   9.833014  12.218993  -4.450355  -6.735150  25.904177   0.013077   0.009321  16.070765  -0.525146   3.555512 -28.849679  -0.002282  -0.009659 -37.613579   3.217823  -4.963498  41.726475   0.001116  -0.002276 -22.306547   3.855326  -1.009810  -1.748802  -0.000488  -0.000187
 -2.349554   0.872752   4.273088  11.401205   3.115000   9.128182  -2.163127  13.658267  -4.324196   1.182501   8.314592  -2.548313  -9.375010  -6.414333   0.408774   1.306529   4.071604   0.688855   4.652144  20.797319  49.642207  -0.011580  74.753541  -0.001834   1.863483   5.548718  -3.639165   3.928339  16.789263  -3.322217   7.687557  16.198012 -42.176299   0.015097 -42.846818  -0.025145  -1.797494  -2.081452  10.223155  10.617041  -4.551435  -7.156291  29.651269   0.014629   0.002300  15.582755  -1.086735   3.688134 -26.383712   0.005571  -0.023831 -35.691482   2.690643  -5.137963  40.855028   0.003578  -0.000943 -23.464226   3.633001  -0.666874  -1.609492  -0.001134  -0.000729
 -2.348902   0.870240   4.284278  11.488784   3.405428   9.279002  -2.116431  13.391741  -4.505832   1.156888   8.033700  -2.846656  -9.506286  -6.340497   0.538189   1.491169   3.642687   0.824251   5.332474  20.209566  49.922363   0.001196  73.010370  -0.021741   1.893994   5.576947  -3.552195   3.921387  16.687000  -3.786073   6.880559  15.965454 -42.463670   0.021831 -43.825139  -0.018504  -1.805604  -1.871054  10.470822   8.944032  -4.633806  -7.577355  33.533408   0.017610  -0.002039  15.123863  -1.621260   3.805563 -24.224125   0.011266  -0.031962 -33.678137   2.121735  -5.259943  39.981376   0.005515  -0.000551 -24.554552   3.416983  -0.349845  -1.527470  -0.001357  -0.000860
 -2.348277   0.866895   4.295463  11.570521   3.758294   9.409672  -2.093120  13.030653  -4.668582   1.121555   7.656917  -3.129348  -9.626596  -6.271758   0.663920   1.705583   3.195207   0.950793   6.011478  19.629001  50.181563   0.012541  71.356181  -0.038663   1.907944   5.381295  -3.495051   3.866465  16.522898  -4.248813   6.092570  15.699752 -42.761524   0.027959 -44.760102  -0.011716  -1.795210  -1.781526  10.604552   7.249848  -4.680090  -8.006065  37.403344   0.021667  -0.004428  14.696811  -2.121555   3.910230 -22.249475   0.015711  -0.036239 -31.650105   1.566296  -5.312649  39.193390   0.006718  -0.000941 -25.570423   3.210410  -0.058272  -1.451736  -0.001512  -0.000875
 -2.347675   0.862672   4.306643  11.652604   4.149258   9.527079  -2.092155  12.599167  -4.820892   1.073645   7.209669  -3.401177  -9.738542  -6.208790   0.782971   1.934756   2.740690   1.063221   6.675862  19.065584  50.421793   0.021985  69.799830  -0.052083   1.915501   5.101616  -3.449099   3.777045  16.315450  -4.691226   5.327761  15.416198 -43.053800   0.033107 -45.649394  -0.005209  -1.769463  -1.783838  10.667705   5.556855  -4.689841  -8.449552  41.243743   0.026346  -0.006033  14.297756  -2.589637   4.003549 -20.443652   0.019225  -0.038111 -29.634587   1.031299  -5.297948  38.495553   0.007388  -0.001660 -26.516302   3.013609   0.210191  -1.380893  -0.001617  -0.000829
 -2.347089   0.857548   4.317816  11.736516   4.565492   9.633863  -2.110814  12.117059  -4.965845   1.013939   6.712734  -3.663239  -9.843275  -6.151312   0.894310   2.169365   2.286919   1.159729   7.318349  18.522877  50.643527   0.029319  68.339727  -0.061970   1.919773   4.786307  -3.416437   3.661691  16.077556  -5.104619   4.588417  15.123847 -43.333244   0.037150 -46.493026   0.000706  -1.731254  -1.857663  10.688077   3.883146  -4.665417  -8.906740  45.055798   0.031272  -0.007468  13.924546  -3.027555   4.086819 -18.792626   0.021975  -0.038484 -27.649060   0.518444  -5.221739  37.879329   0.007677  -0.002446 -27.397058   2.826430   0.457649  -1.315005  -0.001678  -0.000750
 -2.346592   0.854267   4.328682  11.546608   5.424764  10.119238  -1.828438  11.413548  -5.395519   1.068565   6.057297  -4.050719  -9.952404  -6.104720   0.986953   2.405161   1.873556   1.389819   7.927643  17.998277  50.875347   0.027069  66.923138  -0.062908   1.910780   4.270246  -3.473933   3.442158  15.696815  -5.616797   3.816502  14.758862 -43.632365   0.041646 -47.283991   0.006286  -1.686922  -1.954608  10.661573   2.418053  -4.641858  -9.602527  48.783464   0.044113   0.003520  13.581755  -3.439702   4.160815 -17.229195   0.027000  -0.032557 -26.579070   0.510338  -5.808227  38.377277   0.007064   0.000886 -28.122061   2.770735   0.456106  -1.136568  -0.001607   0.000371
 -2.346612   0.852889   4.339059  11.247596   6.290570  10.630602  -1.282804  10.773279  -5.806114   1.079593   5.480675  -4.466826 -10.108898  -5.953058   0.937785   2.613158   1.389922   1.723536   8.312180  16.935151  51.129266   0.039956  64.940388  -0.085208   1.942887   4.249709  -3.194378   3.337319  15.041433  -6.133886   2.742055  14.029040 -44.075044   0.054435 -48.434915   0.016813  -1.793517  -1.369450  10.564036   0.615523  -4.488473 -10.263070  52.748781   0.056093   0.014473  11.704535  -4.188181   3.829801 -15.848886   0.033933  -0.028434 -25.627056   0.265792  -6.464622  38.217580   0.005463   0.000099 -28.732284   2.625867   0.466343  -1.076521  -0.001346   0.000464
 -2.347107   0.852303   4.349735  10.867762   7.008194  11.006778  -0.756934  10.131088  -6.075932   1.111378   4.872003  -4.806387 -10.237130  -5.793307   0.888567   2.830354   0.896483   1.982264   8.709714  15.884852  51.324675   0.051751  63.032652  -0.103425   1.950909   3.926596  -3.004659   3.165319  14.334462  -6.583613   1.678910  13.271162 -44.518353   0.065704 -49.569463   0.027289  -1.857418  -1.032161  10.325312  -1.333536  -4.277160 -10.780955  56.662448   0.062096   0.018831   9.923986  -4.877457   3.494076 -14.717837   0.035834  -0.025385 -24.413320  -0.089923  -6.922313  37.770325   0.004135  -0.001271 -29.277495   2.458464   0.520361  -1.069748  -0.001087   0.000382
 -2.347979   0.852095   4.360775  10.433190   7.604641  11.293044  -0.277129   9.449479  -6.268225   1.138505   4.221109  -5.082426 -10.348478  -5.642170   0.849596   3.047920   0.401045   2.175784   9.104338  14.878088  51.485180   0.062898  61.243769  -0.118517   1.954253   3.518189  -2.856846   2.964668  13.623059  -6.953255   0.647285  12.533714 -44.922186   0.074681 -50.653807   0.037143  -1.888508  -0.861333  10.065863  -3.384975  -4.039881 -11.219626  60.514026   0.063468   0.018344   8.250918  -5.507379   3.160995 -13.705535   0.035310  -0.023244 -23.020814  -0.511312  -7.224045  37.159582   0.003306  -0.002507 -29.821497   2.290616   0.592810  -1.064388  -0.000879   0.000310
 -2.349140   0.851986   4.372202   9.950750   8.091915  11.512859   0.151291   8.735929  -6.406541   1.155553   3.538637  -5.310647 -10.448218  -5.501867   0.816825   3.262381  -0.095003   2.313523   9.490806  13.915671  51.616604   0.072917  59.572278  -0.130605   1.956069   3.099887  -2.752261   2.749356  12.925255  -7.242545  -0.346884  11.829235 -45.278828   0.081446 -51.682597   0.045887  -1.897062  -0.796046   9.833520  -5.490732  -3.779332 -11.605719  64.309876   0.061498   0.014866   6.679876  -6.083527   2.833238 -12.793994   0.033371  -0.021661 -21.497371  -0.974977  -7.396708  36.466359   0.002948  -0.003334 -30.352540   2.125454   0.676173  -1.063863  -0.000704   0.000248
 -2.350527   0.851798   4.384051   9.433568   8.486944  11.675870   0.516839   8.003627  -6.502082   1.156800   2.836810  -5.502027 -10.539206  -5.372247   0.788020   3.475348  -0.591985   2.405396   9.869530  12.994882  51.722924   0.081278  58.009983  -0.139679   1.956563   2.685339  -2.692113   2.527409  12.251666  -7.462022  -1.299915  11.162301 -45.590925   0.086210 -52.654784   0.053106  -1.889457  -0.803117   9.641615  -7.590018  -3.506000 -11.946166  67.932336   0.056980   0.009888   5.207625  -6.610762   2.512478 -11.970858   0.030605  -0.020365 -19.880966  -1.467617  -7.456548  35.739801   0.002940  -0.003725 -30.862345   1.963696   0.766991  -1.066189  -0.000558   0.000200
 -2.352092   0.851409   4.396314   8.896129   8.799796  11.791376   0.817007   7.267288  -6.565968   1.136624   2.128513  -5.666652 -10.624391  -5.252558   0.762089   3.686533  -1.087190   2.458561  10.239546  12.114511  51.807562   0.087642  56.549296  -0.145761   1.955468   2.275842  -2.674821   2.303558  11.607458  -7.625408  -2.209531  10.533698 -45.865941   0.089245 -53.571416   0.058647  -1.870228  -0.862664   9.488652  -9.652812  -3.224041 -12.249145  71.317484   0.050759   0.004485   3.828001  -7.093435   2.200039 -11.227082   0.027398  -0.019217 -18.202861  -1.976077  -7.419263  35.012044   0.003159  -0.003724 -31.346116   1.806077   0.862398  -1.069940  -0.000438   0.000163
 -2.354309   0.851518   4.408101   8.756925   9.102794  11.638341   0.914629   6.628123  -6.501836   0.955898   1.605388  -5.731331 -10.669826  -4.936010   0.608836   4.126031  -1.537617   2.442581  10.602281  10.915540  51.786031   0.084128  55.589045  -0.136836   1.856015   1.841985  -2.645218   2.204690  10.741904  -7.694939  -3.118670   9.653806 -46.161247   0.113386 -55.250973   0.084420  -2.005050  -0.207271   9.330483 -12.176569  -3.011708 -12.226461  73.535059   0.040484   0.002584   1.496035  -7.514246   1.844265 -10.455750   0.021901  -0.017716 -16.885927  -2.382751  -7.039435  34.070699   0.003854  -0.004913 -31.227897   1.772445   0.823246  -1.137974  -0.000213   0.000080
 -2.356804   0.851728   4.419711   8.659568   9.329662  11.453101   1.074146   5.995555  -6.427957   0.768926   1.077003  -5.763109 -10.709594  -4.622079   0.459860   4.517872  -1.952741   2.342744  10.931111   9.785276  51.726620   0.079999  54.710511  -0.127181   1.761307   1.526165  -2.660850   2.011772   9.825690  -7.657177  -4.062553   8.741945 -46.422297   0.134762 -56.902973   0.109151  -2.068121   0.050419   9.123243 -14.832782  -2.805476 -12.138796  75.249844   0.030770   0.001644  -0.715272  -7.885649   1.494552  -9.840389   0.016434  -0.015911 -15.543611  -2.772111  -6.593391  33.012339   0.004932  -0.005598 -31.127982   1.743594   0.791129  -1.157502  -0.000130   0.000060
 -2.359430   0.851788   4.431325   8.553983   9.493013  11.263605   1.272725   5.345202  -6.343988   0.608792   0.528539  -5.769751 -10.735263  -4.327188   0.321126   4.864773  -2.337329   2.191873  11.224909   8.724236  51.642418   0.075760  53.898065  -0.117959   1.671891   1.267293  -2.725072   1.769992   8.905714  -7.544228  -5.006709   7.845958 -46.641846   0.152714 -58.479421   0.131477  -2.087300   0.078763   8.942821 -17.530388  -2.598423 -12.019633  76.691627   0.022512   0.001246  -2.791254  -8.216314   1.154977  -9.290178   0.011606  -0.014190 -14.155690  -3.158343  -6.121331  31.914383   0.006146  -0.005568 -31.051611   1.713389   0.769956  -1.178841  -0.000060   0.000056
 -2.362107   0.851549   4.443064   8.429943   9.608028  11.076162   1.486906   4.682229  -6.246997   0.475272  -0.033670  -5.754795 -10.749022  -4.052608   0.192018   5.182418  -2.704986   2.011212  11.495578   7.723589  51.543831   0.071414  53.142473  -0.109331   1.585784   1.037065  -2.833635   1.506650   8.008540  -7.381105  -5.929347   6.984703 -46.829170   0.167205 -59.971542   0.150406  -2.080547  -0.021617   8.799529 -20.211611  -2.394161 -11.879701  77.952683   0.015808   0.001160  -4.736563  -8.511873   0.827342  -8.794305   0.007581  -0.012594 -12.731865  -3.536990  -5.633804  30.827814   0.007272  -0.005018 -30.989513   1.681725   0.757705  -1.202262   0.000000   0.000065
